<?xml version="1.0" standalone="no"?>
<!DOCTYPE svg PUBLIC "-//W3C//DTD SVG 20010904//EN"
 "http://www.w3.org/TR/2001/REC-SVG-20010904/DTD/svg10.dtd">
<svg version="1.0" xmlns="http://www.w3.org/2000/svg"
 width="866.000000pt" height="173.000000pt" viewBox="0 0 866.000000 173.000000"
 preserveAspectRatio="xMidYMid meet">

<g transform="translate(0.000000,173.000000) scale(0.100000,-0.100000)"
fill="#FFFFFF" stroke="none">
<path d="M7003 1695 c-28 -14 -70 -46 -92 -70 -33 -36 -41 -52 -41 -82 1 -63
54 -110 111 -98 16 4 47 22 70 41 22 19 48 34 58 34 9 0 41 -16 71 -35 98 -63
155 -69 245 -24 53 26 121 96 131 133 8 33 -20 90 -52 105 -44 20 -80 13 -124
-24 -23 -19 -53 -35 -66 -35 -14 0 -55 18 -91 40 -83 50 -141 54 -220 15z"/>
<path d="M460 1695 c-114 -32 -198 -81 -280 -163 -119 -120 -170 -244 -170
-417 0 -245 120 -417 358 -516 121 -50 193 -88 242 -130 52 -44 89 -50 120
-19 36 36 18 82 -55 140 -47 38 -83 57 -228 121 -133 59 -202 110 -244 180
-106 177 -74 410 76 552 189 180 466 179 634 -3 78 -84 100 -144 105 -290 4
-130 13 -150 68 -150 54 0 69 33 68 149 -1 246 -137 446 -360 528 -89 32 -250
41 -334 18z"/>
<path d="M2665 1646 c-50 -22 -85 -71 -85 -119 0 -106 109 -171 197 -117 46
27 66 64 65 115 0 56 -29 98 -82 119 -48 19 -56 19 -95 2z"/>
<path d="M3683 1639 c-17 -5 -43 -23 -57 -40 -26 -30 -26 -33 -26 -196 0 -158
-1 -165 -18 -150 -63 58 -212 75 -330 39 -315 -99 -425 -498 -204 -744 92
-103 220 -153 369 -146 77 3 100 9 167 41 88 42 165 113 208 193 52 97 58 146
58 539 0 323 -2 364 -18 394 -30 60 -88 87 -149 70z m-208 -598 c95 -43 143
-152 111 -249 -21 -62 -87 -128 -141 -138 -62 -11 -131 1 -174 31 -48 33 -91
112 -91 167 0 147 161 250 295 189z"/>
<path d="M438 1440 c-79 -23 -172 -116 -202 -199 -27 -75 -19 -179 18 -248 30
-54 48 -65 84 -52 34 13 37 35 14 92 -27 69 -31 100 -20 152 13 60 74 128 136
151 62 23 72 32 72 63 0 48 -34 62 -102 41z"/>
<path d="M2649 1295 c-14 -8 -35 -27 -45 -42 -18 -26 -19 -51 -19 -398 0 -338
2 -373 18 -398 53 -81 161 -81 214 0 16 24 18 63 21 378 2 267 0 360 -10 390
-24 72 -112 106 -179 70z"/>
<path d="M4238 1291 c-123 -40 -216 -123 -277 -251 -31 -65 -36 -86 -39 -165
-3 -73 0 -102 18 -154 43 -129 127 -224 249 -284 64 -31 70 -32 196 -32 151 0
206 15 255 71 23 26 30 44 30 75 0 106 -92 159 -190 109 -46 -24 -135 -27
-183 -6 -18 7 -48 30 -66 50 l-35 36 272 0 c301 0 328 4 356 59 34 65 7 200
-62 307 -62 95 -145 157 -251 188 -73 21 -201 20 -273 -3z m247 -240 c39 -17
95 -72 95 -92 0 -5 -83 -9 -195 -9 -183 0 -195 1 -186 18 14 25 62 68 96 86
41 22 140 20 190 -3z"/>
<path d="M5205 1292 c-120 -42 -223 -134 -278 -249 -30 -65 -32 -74 -32 -189
0 -118 0 -121 37 -195 49 -100 121 -171 218 -218 66 -31 86 -36 170 -39 82 -4
106 -1 172 22 l77 26 27 -25 c20 -19 38 -25 70 -25 56 0 84 14 112 54 21 31
22 41 22 247 0 147 -4 230 -14 264 -42 157 -157 279 -307 326 -78 24 -205 25
-274 1z m220 -251 c157 -71 165 -289 14 -368 -45 -25 -127 -31 -172 -14 -40
16 -99 73 -118 116 -60 130 44 285 191 285 25 0 63 -9 85 -19z"/>
<path d="M6198 1291 c-267 -88 -399 -391 -279 -636 57 -115 147 -193 272 -235
54 -19 80 -21 174 -18 92 4 119 9 168 31 108 49 167 115 167 185 0 38 -5 50
-39 83 -33 34 -45 39 -83 39 -36 0 -57 -8 -108 -42 -60 -41 -67 -43 -135 -43
-63 0 -77 4 -113 29 -50 34 -92 112 -92 170 1 121 117 219 236 201 24 -3 69
-23 104 -46 77 -49 107 -56 154 -34 75 36 99 118 53 186 -29 44 -104 100 -164
123 -73 28 -241 32 -315 7z"/>
<path d="M7075 1296 c-174 -55 -302 -208 -328 -391 -27 -184 84 -379 263 -464
66 -31 86 -36 170 -39 81 -4 106 -1 170 21 l74 25 32 -24 c22 -18 44 -24 79
-24 42 0 52 5 86 39 l39 39 0 219 c0 173 -3 231 -16 274 -48 161 -155 273
-305 320 -71 22 -202 25 -264 5z m210 -255 c202 -91 139 -391 -82 -391 -134 0
-232 118 -204 246 29 128 168 199 286 145z"/>
<path d="M8055 1292 c-257 -89 -388 -361 -290 -603 73 -181 230 -288 423 -289
216 0 392 135 447 345 47 182 -31 384 -188 488 -112 75 -276 99 -392 59z m220
-251 c74 -33 125 -113 125 -197 0 -48 -47 -132 -91 -161 -43 -28 -114 -40
-174 -29 -71 14 -154 117 -155 191 0 117 95 215 210 215 25 0 63 -9 85 -19z"/>
<path d="M1805 1125 c-71 -18 -291 -72 -488 -120 -317 -77 -360 -90 -374 -111
-8 -13 -13 -34 -10 -46 4 -15 74 -74 196 -166 l189 -142 45 -83 c25 -45 77
-146 116 -224 47 -92 79 -144 92 -148 26 -8 52 1 66 23 6 11 80 180 163 378
280 659 268 625 232 657 -27 24 -78 20 -227 -18z"/>
<path d="M999 598 c-108 -77 -259 -203 -264 -220 -15 -46 37 -94 83 -77 24 9
143 98 242 180 52 43 60 54 60 84 0 24 -7 39 -22 49 -32 23 -49 20 -99 -16z"/>
<path d="M1078 427 c-204 -157 -266 -208 -272 -224 -10 -26 6 -63 34 -78 23
-12 31 -12 53 0 45 23 359 266 386 298 32 39 0 107 -49 107 -10 0 -78 -46
-152 -103z"/>
<path d="M1250 329 c-45 -28 -239 -180 -263 -207 -40 -44 9 -124 64 -104 33
13 275 207 294 236 19 28 7 69 -24 85 -27 15 -31 14 -71 -10z"/>
<path d="M6227 299 c-24 -14 -107 -182 -107 -218 0 -20 9 -36 26 -50 54 -42
85 -22 148 93 52 96 56 127 21 161 -25 26 -58 31 -88 14z"/>
<path d="M6573 263 c-48 -10 -70 -84 -35 -116 10 -10 33 -17 51 -17 49 0 71
-16 71 -51 0 -34 -27 -49 -91 -49 -21 0 -39 -4 -39 -10 0 -5 25 -10 55 -10 46
0 60 4 80 25 48 47 19 115 -49 115 -19 0 -44 8 -57 19 -21 16 -22 22 -11 45
10 24 17 26 68 26 40 0 55 3 52 13 -5 12 -56 18 -95 10z"/>
<path d="M7860 208 c0 -29 -4 -48 -8 -41 -16 25 -61 34 -97 19 -93 -39 -64
-176 37 -176 73 0 104 60 96 189 -4 75 -28 82 -28 9z m-20 -58 c27 -27 25 -66
-6 -96 -29 -30 -67 -27 -96 8 -23 27 -23 49 3 82 25 32 70 35 99 6z"/>
<path d="M6920 160 c0 -88 1 -93 29 -121 33 -33 83 -39 117 -15 27 20 10 31
-25 17 -23 -10 -34 -10 -53 0 -33 17 -38 28 -38 82 l0 47 45 0 c25 0 45 5 45
10 0 6 -20 10 -44 10 -41 0 -45 2 -48 27 -2 14 -9 28 -15 31 -10 3 -13 -19
-13 -88z"/>
<path d="M8122 239 c2 -6 8 -10 13 -10 5 0 11 4 13 10 2 6 -4 11 -13 11 -9 0
-15 -5 -13 -11z"/>
<path d="M7304 185 c-4 -9 -4 -41 -2 -72 4 -46 10 -61 32 -80 35 -29 77 -29
112 0 24 21 27 31 28 92 1 46 -3 69 -11 72 -10 4 -13 -13 -13 -60 0 -59 -3
-68 -26 -86 -33 -26 -49 -26 -74 -1 -16 16 -20 33 -20 79 0 58 -14 88 -26 56z"/>
<path d="M8127 194 c-4 -4 -7 -47 -7 -96 0 -67 3 -89 13 -86 8 3 13 32 15 88
3 77 -5 110 -21 94z"/>
<path d="M8440 193 c-28 -10 -59 -45 -65 -74 -7 -32 16 -83 44 -99 81 -43 174
50 131 131 -19 34 -74 55 -110 42z m80 -50 c50 -64 -29 -143 -93 -93 -51 40
-23 120 42 120 20 0 36 -9 51 -27z"/>
</g>
</svg>
